solid Shape0
facet normal 0 0 -1
outer loop
vertex  70.999999999999986 -10.5 2
vertex  -70.999999999999986 -10.499999999999998 2
vertex  70.999999999999986 10.500000000000005 2
endloop
endfacet
facet normal 0 0 -1
outer loop
vertex  -70.999999999999986 -10.499999999999998 2
vertex  -70.999999999999986 10.500000000000011 2
vertex  70.999999999999986 10.500000000000005 2
endloop
endfacet
facet normal -1 0 0
outer loop
vertex  -70.999999999999986 -10.499999999999998 2.0000000000000018
vertex  -70.999999999999986 -10.499999999999998 4.0000000000000036
vertex  -70.999999999999986 10.500000000000011 2.0000000000000018
endloop
endfacet
facet normal -1 0 0
outer loop
vertex  -70.999999999999986 -10.499999999999998 4.0000000000000036
vertex  -70.999999999999986 10.500000000000011 4.0000000000000036
vertex  -70.999999999999986 10.500000000000011 2.0000000000000018
endloop
endfacet
facet normal 1 0 0
outer loop
vertex  70.999999999999986 10.500000000000005 2.0000000000000018
vertex  70.999999999999986 10.500000000000005 4.0000000000000036
vertex  70.999999999999986 -10.5 2.0000000000000018
endloop
endfacet
facet normal 0.99999999999999989 0 0
outer loop
vertex  70.999999999999986 10.500000000000005 4.0000000000000036
vertex  70.999999999999986 -10.499999999999998 4.0000000000000036
vertex  70.999999999999986 -10.5 2.0000000000000018
endloop
endfacet
facet normal 0 -1 0
outer loop
vertex  -70.999999999999986 10.500000000000009 4.0000000000000036
vertex  -73 10.500000000000009 4
vertex  -70.999999999999986 10.500000000000009 2.0000000000000018
endloop
endfacet
facet normal 0 -1 0
outer loop
vertex  -73 10.500000000000009 4
vertex  -73 10.500000000000009 0
vertex  -70.999999999999986 10.500000000000009 2.0000000000000018
endloop
endfacet
facet normal -1.250955520704402E-16 -1 1.25095552070441E-16
outer loop
vertex  -70.999999999999986 10.500000000000009 2.0000000000000018
vertex  -73 10.500000000000009 0
vertex  70.999999999999986 10.499999999999991 2.0000000000000018
endloop
endfacet
facet normal -1.2166827667125003E-16 -1 -1.2166827667124993E-16
outer loop
vertex  -73 10.500000000000009 0
vertex  73 10.499999999999991 0
vertex  70.999999999999986 10.499999999999991 2.0000000000000018
endloop
endfacet
facet normal 0 -1 0
outer loop
vertex  70.999999999999986 10.499999999999991 2.0000000000000018
vertex  73 10.499999999999991 0
vertex  70.999999999999986 10.499999999999991 4
endloop
endfacet
facet normal 0 -1 0
outer loop
vertex  73 10.499999999999991 0
vertex  73 10.499999999999991 4.0000000000000036
vertex  70.999999999999986 10.499999999999991 4
endloop
endfacet
facet normal 0 1 0
outer loop
vertex  70.999999999999986 -10.5 4.0000000000000036
vertex  73 -10.5 4.0000000000000036
vertex  70.999999999999986 -10.5 2
endloop
endfacet
facet normal 0 1 0
outer loop
vertex  73 -10.5 4.0000000000000036
vertex  73 -10.5 0
vertex  70.999999999999986 -10.5 2
endloop
endfacet
facet normal 0 1 0
outer loop
vertex  70.999999999999986 -10.5 2
vertex  73 -10.5 0
vertex  -70.999999999999986 -10.5 2.0000000000000018
endloop
endfacet
facet normal 0 1 0
outer loop
vertex  73 -10.5 0
vertex  -73 -10.5 0
vertex  -70.999999999999986 -10.5 2.0000000000000018
endloop
endfacet
facet normal 0 1 0
outer loop
vertex  -70.999999999999986 -10.5 2.0000000000000018
vertex  -73 -10.5 0
vertex  -70.999999999999986 -10.5 4.0000000000000036
endloop
endfacet
facet normal 0 1 0
outer loop
vertex  -73 -10.5 0
vertex  -73 -10.5 4.0000000000000036
vertex  -70.999999999999986 -10.5 4.0000000000000036
endloop
endfacet
facet normal -1 0 0
outer loop
vertex  73 -10.499999999999998 4.0000000000000036
vertex  73 10.499999999999993 4.0000000000000036
vertex  73 -10.5 0
endloop
endfacet
facet normal -1 0 0
outer loop
vertex  73 10.499999999999993 4.0000000000000036
vertex  73 10.499999999999991 0
vertex  73 -10.5 0
endloop
endfacet
facet normal 1 0 0
outer loop
vertex  -73 10.500000000000011 4
vertex  -73 -10.499999999999998 4.0000000000000036
vertex  -73 10.500000000000011 0
endloop
endfacet
facet normal 1 0 0
outer loop
vertex  -73 -10.499999999999998 4.0000000000000036
vertex  -73 -10.5 0
vertex  -73 10.500000000000011 0
endloop
endfacet
facet normal 0 0 1
outer loop
vertex  -70.999999999999986 -10.499999999999998 4
vertex  -69.999999999999986 -19.000000000000004 4
vertex  69.999999999999986 -19.000000000000004 4
endloop
endfacet
facet normal 0 0 1
outer loop
vertex  74.963544370490254 14.602683401276629 4
vertex  74.854709087130246 15.1965783214378 4
vertex  70.999999999999986 10.500000000000005 4
endloop
endfacet
facet normal 0 0 1
outer loop
vertex  74.854709087130246 15.1965783214378 4
vertex  74.675081213427077 15.773024435212688 4
vertex  70.999999999999986 10.500000000000005 4
endloop
endfacet
facet normal 0 0 1
outer loop
vertex  74.963544370490254 14.602683401276629 4
vertex  70.999999999999986 10.500000000000005 4
vertex  75 14.000000000000011 4
endloop
endfacet
facet normal 0 0 0.99999999999999989
outer loop
vertex  70.999999999999986 10.500000000000005 4
vertex  73 10.499999999999993 4
vertex  75 14.000000000000011 4
endloop
endfacet
facet normal 0 0 1
outer loop
vertex  75 14.000000000000011 4
vertex  73 10.499999999999993 4
vertex  75 -14.000000000000002 4
endloop
endfacet
facet normal 0 0 1
outer loop
vertex  73 10.499999999999993 4
vertex  73 -10.499999999999998 4
vertex  75 -14.000000000000002 4
endloop
endfacet
facet normal 0 0 1
outer loop
vertex  75 -14.000000000000002 4
vertex  73 -10.499999999999998 4
vertex  74.963544370490254 -14.602683401276616 4
endloop
endfacet
facet normal 0 0 1
outer loop
vertex  73 -10.499999999999998 4
vertex  70.999999999999986 -10.499999999999998 4
vertex  74.963544370490254 -14.602683401276616 4
endloop
endfacet
facet normal 0 0 0.99999999999999989
outer loop
vertex  74.963544370490254 -14.602683401276616 4
vertex  70.999999999999986 -10.499999999999998 4
vertex  74.854709087130246 -15.196578321437789 4
endloop
endfacet
facet normal 0 0 0.99999999999999989
outer loop
vertex  -74.963544370490254 -14.60268340127662 4
vertex  -70.999999999999986 -10.499999999999998 4
vertex  -75 -14.000000000000004 4
endloop
endfacet
facet normal 0 0 1
outer loop
vertex  -70.999999999999986 -10.499999999999998 4
vertex  -73 -10.499999999999998 4
vertex  -75 -14.000000000000004 4
endloop
endfacet
facet normal 0 0 1
outer loop
vertex  -75 -14.000000000000004 4
vertex  -73 -10.499999999999998 4
vertex  -75 13.999999999999993 4
endloop
endfacet
facet normal 0 0 1
outer loop
vertex  -73 -10.499999999999998 4
vertex  -73 10.500000000000011 4
vertex  -75 13.999999999999993 4
endloop
endfacet
facet normal 0 0 0.99999999999999989
outer loop
vertex  -75 13.999999999999993 4
vertex  -73 10.500000000000011 4
vertex  -74.963544370490254 14.602683401276609 4
endloop
endfacet
facet normal 0 0 1
outer loop
vertex  -73 10.500000000000011 4
vertex  -70.999999999999986 10.500000000000011 4
vertex  -74.963544370490254 14.602683401276609 4
endloop
endfacet
facet normal 0 0 0.99999999999999989
outer loop
vertex  -74.963544370490254 14.602683401276609 4
vertex  -70.999999999999986 10.500000000000011 4
vertex  -74.854709087130246 15.196578321437782 4
endloop
endfacet
facet normal 0 0 1
outer loop
vertex  74.675081213427077 15.773024435212688 4
vertex  74.427280128266034 16.323615860218855 4
vertex  70.999999999999986 10.500000000000005 4
endloop
endfacet
facet normal 0 0 1
outer loop
vertex  74.427280128266034 16.323615860218855 4
vertex  74.114919329468279 16.84032373365579 4
vertex  70.999999999999986 10.500000000000005 4
endloop
endfacet
facet normal 0 0 1
outer loop
vertex  70.999999999999986 10.500000000000005 4
vertex  74.114919329468279 16.84032373365579 4
vertex  73.7425537408555 17.315613291203984 4
endloop
endfacet
facet normal 0 0 1
outer loop
vertex  73.7425537408555 17.315613291203984 4
vertex  73.31561329120396 17.742553740855517 4
vertex  70.999999999999986 10.500000000000005 4
endloop
endfacet
facet normal 0 0 1
outer loop
vertex  73.31561329120396 17.742553740855517 4
vertex  72.840323733655779 18.114919329468293 4
vertex  70.999999999999986 10.500000000000005 4
endloop
endfacet
facet normal 0 0 1
outer loop
vertex  70.999999999999986 10.500000000000005 4
vertex  72.840323733655779 18.114919329468293 4
vertex  72.323615860218837 18.427280128266062 4
endloop
endfacet
facet normal 0 0 1
outer loop
vertex  -70.999999999999986 -10.499999999999998 4
vertex  70.999999999999986 -10.499999999999998 4
vertex  -70.999999999999986 10.500000000000011 4
endloop
endfacet
facet normal 0 0 1
outer loop
vertex  70.999999999999986 -10.499999999999998 4
vertex  70.999999999999986 10.500000000000005 4
vertex  -70.999999999999986 10.500000000000011 4
endloop
endfacet
facet normal 0 0 0.99999999999999989
outer loop
vertex  -74.963544370490254 -14.60268340127662 4
vertex  -74.854709087130246 -15.196578321437793 4
vertex  -70.999999999999986 -10.499999999999998 4
endloop
endfacet
facet normal 0 0 1
outer loop
vertex  -74.854709087130246 -15.196578321437793 4
vertex  -74.675081213427063 -15.773024435212685 4
vertex  -70.999999999999986 -10.499999999999998 4
endloop
endfacet
facet normal 0 0 0.99999999999999989
outer loop
vertex  -70.999999999999986 -10.499999999999998 4
vertex  -74.675081213427063 -15.773024435212685 4
vertex  -74.427280128266034 -16.323615860218851 4
endloop
endfacet
facet normal 0 0 1
outer loop
vertex  72.840323733655779 -18.114919329468279 4
vertex  73.31561329120396 -17.742553740855506 4
vertex  70.999999999999986 -10.499999999999998 4
endloop
endfacet
facet normal 0 0 1
outer loop
vertex  73.31561329120396 -17.742553740855506 4
vertex  73.7425537408555 -17.315613291203974 4
vertex  70.999999999999986 -10.499999999999998 4
endloop
endfacet
facet normal 0 0 1
outer loop
vertex  70.999999999999986 -10.499999999999998 4
vertex  73.7425537408555 -17.315613291203974 4
vertex  74.114919329468279 -16.840323733655779 4
endloop
endfacet
facet normal 0 0 1
outer loop
vertex  -72.840323733655779 18.114919329468275 4
vertex  -73.31561329120396 17.7425537408555 4
vertex  -70.999999999999986 10.500000000000011 4
endloop
endfacet
facet normal 0 0 1
outer loop
vertex  -73.31561329120396 17.7425537408555 4
vertex  -73.7425537408555 17.315613291203963 4
vertex  -70.999999999999986 10.500000000000011 4
endloop
endfacet
facet normal 0 0 1
outer loop
vertex  -70.999999999999986 10.500000000000011 4
vertex  -73.7425537408555 17.315613291203963 4
vertex  -74.114919329468279 16.840323733655772 4
endloop
endfacet
facet normal 0 0 1
outer loop
vertex  72.323615860218837 18.427280128266062 4
vertex  71.773024435212676 18.675081213427084 4
vertex  70.999999999999986 10.500000000000005 4
endloop
endfacet
facet normal 0 0 1
outer loop
vertex  71.773024435212676 18.675081213427084 4
vertex  71.196578321437769 18.854709087130274 4
vertex  70.999999999999986 10.500000000000005 4
endloop
endfacet
facet normal 0 0 1
outer loop
vertex  70.999999999999986 10.500000000000005 4
vertex  71.196578321437769 18.854709087130274 4
vertex  70.602683401276607 18.963544370490279 4
endloop
endfacet
facet normal 0 0 1
outer loop
vertex  -70.999999999999986 -10.499999999999998 4
vertex  69.999999999999986 -19.000000000000004 4
vertex  70.999999999999986 -10.499999999999998 4
endloop
endfacet
facet normal 0 0 1
outer loop
vertex  69.999999999999986 -19.000000000000004 4
vertex  70.602683401276607 -18.963544370490272 4
vertex  70.999999999999986 -10.499999999999998 4
endloop
endfacet
facet normal 0 0 1
outer loop
vertex  70.999999999999986 -10.499999999999998 4
vertex  70.602683401276607 -18.963544370490272 4
vertex  71.196578321437769 -18.854709087130264 4
endloop
endfacet
facet normal 0 0 1
outer loop
vertex  74.114919329468279 -16.840323733655779 4
vertex  74.427280128266048 -16.32361586021884 4
vertex  70.999999999999986 -10.499999999999998 4
endloop
endfacet
facet normal 0 0 1
outer loop
vertex  74.427280128266048 -16.32361586021884 4
vertex  74.675081213427077 -15.773024435212674 4
vertex  70.999999999999986 -10.499999999999998 4
endloop
endfacet
facet normal 0 0 0.99999999999999989
outer loop
vertex  70.999999999999986 -10.499999999999998 4
vertex  74.675081213427077 -15.773024435212674 4
vertex  74.854709087130246 -15.196578321437789 4
endloop
endfacet
facet normal 0 0 1
outer loop
vertex  -74.427280128266034 -16.323615860218851 4
vertex  -74.114919329468279 -16.840323733655786 4
vertex  -70.999999999999986 -10.499999999999998 4
endloop
endfacet
facet normal 0 0 1
outer loop
vertex  -74.114919329468279 -16.840323733655786 4
vertex  -73.7425537408555 -17.315613291203977 4
vertex  -70.999999999999986 -10.499999999999998 4
endloop
endfacet
facet normal 0 0 1
outer loop
vertex  -70.999999999999986 -10.499999999999998 4
vertex  -73.7425537408555 -17.315613291203977 4
vertex  -73.31561329120396 -17.742553740855509 4
endloop
endfacet
facet normal 0 0 1
outer loop
vertex  -73.31561329120396 -17.742553740855509 4
vertex  -72.840323733655779 -18.114919329468286 4
vertex  -70.999999999999986 -10.499999999999998 4
endloop
endfacet
facet normal 0 0 1
outer loop
vertex  -72.840323733655779 -18.114919329468286 4
vertex  -72.323615860218837 -18.427280128266055 4
vertex  -70.999999999999986 -10.499999999999998 4
endloop
endfacet
facet normal 0 0 1
outer loop
vertex  -70.999999999999986 -10.499999999999998 4
vertex  -72.323615860218837 -18.427280128266055 4
vertex  -71.773024435212676 -18.675081213427074 4
endloop
endfacet
facet normal 0 0 1
outer loop
vertex  -71.773024435212676 -18.675081213427074 4
vertex  -71.196578321437769 -18.854709087130267 4
vertex  -70.999999999999986 -10.499999999999998 4
endloop
endfacet
facet normal 0 0 1
outer loop
vertex  -71.196578321437769 -18.854709087130267 4
vertex  -70.602683401276607 -18.963544370490272 4
vertex  -70.999999999999986 -10.499999999999998 4
endloop
endfacet
facet normal 0 0 1
outer loop
vertex  -70.999999999999986 -10.499999999999998 4
vertex  -70.602683401276607 -18.963544370490272 4
vertex  -69.999999999999986 -19.000000000000004 4
endloop
endfacet
facet normal 0 0 0.99999999999999989
outer loop
vertex  -74.114919329468279 16.840323733655772 4
vertex  -74.427280128266048 16.323615860218833 4
vertex  -70.999999999999986 10.500000000000011 4
endloop
endfacet
facet normal 0 0 1
outer loop
vertex  -74.427280128266048 16.323615860218833 4
vertex  -74.675081213427077 15.773024435212671 4
vertex  -70.999999999999986 10.500000000000011 4
endloop
endfacet
facet normal 0 0 1
outer loop
vertex  -70.999999999999986 10.500000000000011 4
vertex  -74.675081213427077 15.773024435212671 4
vertex  -74.854709087130246 15.196578321437782 4
endloop
endfacet
facet normal 0 0 1
outer loop
vertex  -71.196578321437769 18.854709087130257 4
vertex  -71.773024435212676 18.675081213427063 4
vertex  -70.999999999999986 10.500000000000011 4
endloop
endfacet
facet normal 0 0 1
outer loop
vertex  -71.773024435212676 18.675081213427063 4
vertex  -72.323615860218837 18.427280128266041 4
vertex  -70.999999999999986 10.500000000000011 4
endloop
endfacet
facet normal 0 0 1
outer loop
vertex  -70.999999999999986 10.500000000000011 4
vertex  -72.323615860218837 18.427280128266041 4
vertex  -72.840323733655779 18.114919329468275 4
endloop
endfacet
facet normal 0 0 1
outer loop
vertex  71.196578321437769 -18.854709087130264 4
vertex  71.773024435212676 -18.675081213427074 4
vertex  70.999999999999986 -10.499999999999998 4
endloop
endfacet
facet normal 0 0 1
outer loop
vertex  71.773024435212676 -18.675081213427074 4
vertex  72.323615860218837 -18.427280128266052 4
vertex  70.999999999999986 -10.499999999999998 4
endloop
endfacet
facet normal 0 0 0.99999999999999989
outer loop
vertex  70.999999999999986 -10.499999999999998 4
vertex  72.323615860218837 -18.427280128266052 4
vertex  72.840323733655779 -18.114919329468279 4
endloop
endfacet
facet normal 0 0 1
outer loop
vertex  70.602683401276607 18.963544370490279 4
vertex  69.999999999999986 19.000000000000011 4
vertex  70.999999999999986 10.500000000000005 4
endloop
endfacet
facet normal 0 0 1
outer loop
vertex  69.999999999999986 19.000000000000011 4
vertex  -69.999999999999986 18.999999999999993 4
vertex  70.999999999999986 10.500000000000005 4
endloop
endfacet
facet normal 0 0 1
outer loop
vertex  70.999999999999986 10.500000000000005 4
vertex  -69.999999999999986 18.999999999999993 4
vertex  -70.999999999999986 10.500000000000011 4
endloop
endfacet
facet normal 0 0 1
outer loop
vertex  -69.999999999999986 18.999999999999993 4
vertex  -70.602683401276607 18.963544370490261 4
vertex  -70.999999999999986 10.500000000000011 4
endloop
endfacet
facet normal 0 0 1
outer loop
vertex  -70.999999999999986 10.500000000000011 4
vertex  -70.602683401276607 18.963544370490261 4
vertex  -71.196578321437769 18.854709087130257 4
endloop
endfacet
facet normal 0 0 -1
outer loop
vertex  70.602683401276607 -18.963544370490272 0
vertex  69.999999999999986 -19.000000000000004 0
vertex  73.31561329120396 -17.742553740855506 0
endloop
endfacet
facet normal 0 0 -1
outer loop
vertex  73 -10.5 0
vertex  69.999999999999986 -19.000000000000004 0
vertex  -73 -10.5 0
endloop
endfacet
facet normal 0 0 -1
outer loop
vertex  69.999999999999986 -19.000000000000004 0
vertex  -69.999999999999986 -19.000000000000004 0
vertex  -73 -10.5 0
endloop
endfacet
facet normal 0 0 -0.99999999999999989
outer loop
vertex  73.31561329120396 -17.742553740855506 0
vertex  69.999999999999986 -19.000000000000004 0
vertex  73.7425537408555 -17.315613291203974 0
endloop
endfacet
facet normal 0 0 -1
outer loop
vertex  -75 13.999999999999993 0
vertex  -73 10.500000000000011 0
vertex  -75 -14.000000000000002 0
endloop
endfacet
facet normal 0 0 -1
outer loop
vertex  -73 10.500000000000011 0
vertex  -73 -10.5 0
vertex  -75 -14.000000000000002 0
endloop
endfacet
facet normal 0 0 -1
outer loop
vertex  -75 -14.000000000000002 0
vertex  -73 -10.5 0
vertex  -74.963544370490254 -14.60268340127662 0
endloop
endfacet
facet normal 0 0 -1
outer loop
vertex  -73 -10.5 0
vertex  -69.999999999999986 -19.000000000000004 0
vertex  -74.963544370490254 -14.60268340127662 0
endloop
endfacet
facet normal 0 0 -1
outer loop
vertex  -74.963544370490254 -14.60268340127662 0
vertex  -69.999999999999986 -19.000000000000004 0
vertex  -74.854709087130246 -15.196578321437793 0
endloop
endfacet
facet normal 0 0 -1
outer loop
vertex  -73.7425537408555 17.315613291203963 0
vertex  -73.31561329120396 17.7425537408555 0
vertex  -73 10.500000000000011 0
endloop
endfacet
facet normal 0 0 -1
outer loop
vertex  -73 10.500000000000011 0
vertex  -69.999999999999986 18.999999999999993 0
vertex  73 10.499999999999991 0
endloop
endfacet
facet normal 0 0 -1
outer loop
vertex  -69.999999999999986 18.999999999999993 0
vertex  69.999999999999986 19.000000000000011 0
vertex  73 10.499999999999991 0
endloop
endfacet
facet normal 0 0 -1
outer loop
vertex  69.999999999999986 -19.000000000000004 0
vertex  74.854709087130246 -15.196578321437789 0
vertex  74.675081213427077 -15.773024435212674 0
endloop
endfacet
facet normal 0 0 -1
outer loop
vertex  72.323615860218837 -18.427280128266052 0
vertex  71.773024435212676 -18.675081213427074 0
vertex  71.196578321437769 -18.854709087130264 0
endloop
endfacet
facet normal 0 0 -1
outer loop
vertex  -72.323615860218837 -18.427280128266055 0
vertex  -72.840323733655779 -18.114919329468286 0
vertex  -73.31561329120396 -17.742553740855509 0
endloop
endfacet
facet normal 0 0 -0.99999999999999989
outer loop
vertex  -75 13.999999999999993 0
vertex  -74.963544370490254 14.602683401276609 0
vertex  -73 10.500000000000011 0
endloop
endfacet
facet normal 0 0 -1
outer loop
vertex  -74.963544370490254 14.602683401276609 0
vertex  -74.854709087130246 15.196578321437782 0
vertex  -73 10.500000000000011 0
endloop
endfacet
facet normal 0 0 -1
outer loop
vertex  -73 10.500000000000011 0
vertex  -74.854709087130246 15.196578321437782 0
vertex  -74.675081213427077 15.773024435212671 0
endloop
endfacet
facet normal 0 0 -1
outer loop
vertex  74.114919329468279 16.84032373365579 0
vertex  74.427280128266034 16.323615860218855 0
vertex  69.999999999999986 19.000000000000011 0
endloop
endfacet
facet normal 0 0 -1
outer loop
vertex  69.999999999999986 19.000000000000011 0
vertex  74.963544370490254 14.602683401276629 0
vertex  73 10.499999999999991 0
endloop
endfacet
facet normal 0 0 -1
outer loop
vertex  74.963544370490254 14.602683401276629 0
vertex  75 14.000000000000011 0
vertex  73 10.499999999999991 0
endloop
endfacet
facet normal 0 0 -1
outer loop
vertex  73 10.499999999999991 0
vertex  75 14.000000000000011 0
vertex  73 -10.5 0
endloop
endfacet
facet normal 0 0 -1
outer loop
vertex  75 14.000000000000011 0
vertex  75 -14.000000000000002 0
vertex  73 -10.5 0
endloop
endfacet
facet normal 0 0 -1
outer loop
vertex  73 -10.5 0
vertex  75 -14.000000000000002 0
vertex  69.999999999999986 -19.000000000000004 0
endloop
endfacet
facet normal 0 0 -1
outer loop
vertex  75 -14.000000000000002 0
vertex  74.963544370490254 -14.602683401276616 0
vertex  69.999999999999986 -19.000000000000004 0
endloop
endfacet
facet normal 0 0 -1
outer loop
vertex  69.999999999999986 -19.000000000000004 0
vertex  74.963544370490254 -14.602683401276616 0
vertex  74.854709087130246 -15.196578321437789 0
endloop
endfacet
facet normal 0 0 -1
outer loop
vertex  74.675081213427077 -15.773024435212674 0
vertex  74.427280128266048 -16.32361586021884 0
vertex  69.999999999999986 -19.000000000000004 0
endloop
endfacet
facet normal 0 0 -1
outer loop
vertex  74.427280128266048 -16.32361586021884 0
vertex  74.114919329468279 -16.840323733655779 0
vertex  69.999999999999986 -19.000000000000004 0
endloop
endfacet
facet normal 0 0 -1
outer loop
vertex  69.999999999999986 -19.000000000000004 0
vertex  74.114919329468279 -16.840323733655779 0
vertex  73.7425537408555 -17.315613291203974 0
endloop
endfacet
facet normal 0 0 -1
outer loop
vertex  -74.114919329468279 -16.840323733655786 0
vertex  -74.427280128266034 -16.323615860218851 0
vertex  -69.999999999999986 -19.000000000000004 0
endloop
endfacet
facet normal 0 0 -0.99999999999999989
outer loop
vertex  -74.427280128266034 -16.323615860218851 0
vertex  -74.675081213427063 -15.773024435212685 0
vertex  -69.999999999999986 -19.000000000000004 0
endloop
endfacet
facet normal 0 0 -1
outer loop
vertex  -69.999999999999986 -19.000000000000004 0
vertex  -74.675081213427063 -15.773024435212685 0
vertex  -74.854709087130246 -15.196578321437793 0
endloop
endfacet
facet normal 0 0 -1
outer loop
vertex  -74.675081213427077 15.773024435212671 0
vertex  -74.427280128266048 16.323615860218833 0
vertex  -73 10.500000000000011 0
endloop
endfacet
facet normal 0 0 -1
outer loop
vertex  -74.427280128266048 16.323615860218833 0
vertex  -74.114919329468279 16.840323733655772 0
vertex  -73 10.500000000000011 0
endloop
endfacet
facet normal 0 0 -1
outer loop
vertex  -73 10.500000000000011 0
vertex  -74.114919329468279 16.840323733655772 0
vertex  -73.7425537408555 17.315613291203963 0
endloop
endfacet
facet normal 0 0 -1
outer loop
vertex  70.602683401276607 -18.963544370490272 0
vertex  73.31561329120396 -17.742553740855506 0
vertex  71.196578321437769 -18.854709087130264 0
endloop
endfacet
facet normal 0 0 -1
outer loop
vertex  73.31561329120396 -17.742553740855506 0
vertex  72.840323733655779 -18.114919329468279 0
vertex  71.196578321437769 -18.854709087130264 0
endloop
endfacet
facet normal 0 0 -1
outer loop
vertex  71.196578321437769 -18.854709087130264 0
vertex  72.840323733655779 -18.114919329468279 0
vertex  72.323615860218837 -18.427280128266052 0
endloop
endfacet
facet normal 0 0 -1
outer loop
vertex  -73.31561329120396 17.7425537408555 0
vertex  -72.840323733655779 18.114919329468275 0
vertex  -73 10.500000000000011 0
endloop
endfacet
facet normal 0 0 -0.99999999999999989
outer loop
vertex  -72.840323733655779 18.114919329468275 0
vertex  -72.323615860218837 18.427280128266041 0
vertex  -73 10.500000000000011 0
endloop
endfacet
facet normal 0 0 -1
outer loop
vertex  -73 10.500000000000011 0
vertex  -72.323615860218837 18.427280128266041 0
vertex  -71.773024435212676 18.675081213427063 0
endloop
endfacet
facet normal 0 0 -0.99999999999999989
outer loop
vertex  74.427280128266034 16.323615860218855 0
vertex  74.675081213427077 15.773024435212688 0
vertex  69.999999999999986 19.000000000000011 0
endloop
endfacet
facet normal 0 0 -1
outer loop
vertex  74.675081213427077 15.773024435212688 0
vertex  74.854709087130246 15.1965783214378 0
vertex  69.999999999999986 19.000000000000011 0
endloop
endfacet
facet normal 0 0 -1
outer loop
vertex  69.999999999999986 19.000000000000011 0
vertex  74.854709087130246 15.1965783214378 0
vertex  74.963544370490254 14.602683401276629 0
endloop
endfacet
facet normal 0 0 -1
outer loop
vertex  -70.602683401276607 -18.963544370490272 0
vertex  -71.196578321437769 -18.854709087130267 0
vertex  -73.31561329120396 -17.742553740855509 0
endloop
endfacet
facet normal 0 0 -1
outer loop
vertex  -71.196578321437769 -18.854709087130267 0
vertex  -71.773024435212676 -18.675081213427074 0
vertex  -73.31561329120396 -17.742553740855509 0
endloop
endfacet
facet normal 0 0 -1
outer loop
vertex  -73.31561329120396 -17.742553740855509 0
vertex  -71.773024435212676 -18.675081213427074 0
vertex  -72.323615860218837 -18.427280128266055 0
endloop
endfacet
facet normal 0 0 -1
outer loop
vertex  -70.602683401276607 -18.963544370490272 0
vertex  -73.31561329120396 -17.742553740855509 0
vertex  -69.999999999999986 -19.000000000000004 0
endloop
endfacet
facet normal 0 0 -0.99999999999999989
outer loop
vertex  -73.31561329120396 -17.742553740855509 0
vertex  -73.7425537408555 -17.315613291203977 0
vertex  -69.999999999999986 -19.000000000000004 0
endloop
endfacet
facet normal 0 0 -1
outer loop
vertex  -69.999999999999986 -19.000000000000004 0
vertex  -73.7425537408555 -17.315613291203977 0
vertex  -74.114919329468279 -16.840323733655786 0
endloop
endfacet
facet normal 0 0 -1
outer loop
vertex  -71.773024435212676 18.675081213427063 0
vertex  -71.196578321437769 18.854709087130257 0
vertex  -73 10.500000000000011 0
endloop
endfacet
facet normal 0 0 -1
outer loop
vertex  -71.196578321437769 18.854709087130257 0
vertex  -70.602683401276607 18.963544370490261 0
vertex  -73 10.500000000000011 0
endloop
endfacet
facet normal 0 0 -0.99999999999999989
outer loop
vertex  -73 10.500000000000011 0
vertex  -70.602683401276607 18.963544370490261 0
vertex  -69.999999999999986 18.999999999999993 0
endloop
endfacet
facet normal 0 0 -1
outer loop
vertex  71.773024435212676 18.675081213427084 0
vertex  72.323615860218837 18.427280128266062 0
vertex  71.196578321437769 18.854709087130274 0
endloop
endfacet
facet normal 0 0 -1
outer loop
vertex  72.323615860218837 18.427280128266062 0
vertex  70.602683401276607 18.963544370490279 0
vertex  71.196578321437769 18.854709087130274 0
endloop
endfacet
facet normal 0 0 -1
outer loop
vertex  72.323615860218837 18.427280128266062 0
vertex  72.840323733655779 18.114919329468293 0
vertex  70.602683401276607 18.963544370490279 0
endloop
endfacet
facet normal 0 0 -1
outer loop
vertex  72.840323733655779 18.114919329468293 0
vertex  73.31561329120396 17.742553740855517 0
vertex  70.602683401276607 18.963544370490279 0
endloop
endfacet
facet normal 0 0 -1
outer loop
vertex  70.602683401276607 18.963544370490279 0
vertex  73.31561329120396 17.742553740855517 0
vertex  69.999999999999986 19.000000000000011 0
endloop
endfacet
facet normal 0 0 -0.99999999999999989
outer loop
vertex  73.31561329120396 17.742553740855517 0
vertex  73.7425537408555 17.315613291203984 0
vertex  69.999999999999986 19.000000000000011 0
endloop
endfacet
facet normal 0 0 -1
outer loop
vertex  69.999999999999986 19.000000000000011 0
vertex  73.7425537408555 17.315613291203984 0
vertex  74.114919329468279 16.84032373365579 0
endloop
endfacet
facet normal -1.0150610510858576E-16 1 0
outer loop
vertex  69.999999999999986 19.000000000000011 0
vertex  -69.999999999999986 18.999999999999996 0
vertex  69.999999999999986 19.000000000000011 4
endloop
endfacet
facet normal -1.0150610510858576E-16 1 0
outer loop
vertex  -69.999999999999986 18.999999999999996 0
vertex  -69.999999999999986 18.999999999999996 4
vertex  69.999999999999986 19.000000000000011 4
endloop
endfacet
facet normal -1 0 0
outer loop
vertex  -75 13.999999999999993 0
vertex  -75 -14.000000000000002 0
vertex  -75 13.999999999999993 4
endloop
endfacet
facet normal -1 0 0
outer loop
vertex  -75 -14.000000000000002 0
vertex  -75 -14.000000000000002 4
vertex  -75 13.999999999999993 4
endloop
endfacet
facet normal 0 -1 0
outer loop
vertex  -69.999999999999986 -19.000000000000004 0
vertex  69.999999999999986 -19.000000000000004 0
vertex  -69.999999999999986 -19.000000000000004 4
endloop
endfacet
facet normal 0 -1 0
outer loop
vertex  69.999999999999986 -19.000000000000004 0
vertex  69.999999999999986 -19.000000000000004 4
vertex  -69.999999999999986 -19.000000000000004 4
endloop
endfacet
facet normal 1 0 0
outer loop
vertex  75 14.000000000000011 4
vertex  75 -14.000000000000002 4
vertex  75 14.000000000000011 0
endloop
endfacet
facet normal 1 0 0
outer loop
vertex  75 -14.000000000000002 4
vertex  75 -14.000000000000002 0
vertex  75 14.000000000000011 0
endloop
endfacet
facet normal 0.99817555422331583 0.060378497422311772 0
outer loop
vertex  75 14.000000000000011 4
vertex  75 14.000000000000011 0
vertex  74.963544370490254 14.602683401276629 0
endloop
endfacet
facet normal 0.99817555422331583 0.060378497422311772 0
outer loop
vertex  75 14.000000000000011 4
vertex  74.963544370490254 14.602683401276629 0
vertex  74.963544370490254 14.602683401276629 4
endloop
endfacet
facet normal 0.98361990694714385 0.18025503781390415 0
outer loop
vertex  74.963544370490254 14.602683401276629 0
vertex  74.854709087130246 15.1965783214378 0
vertex  74.963544370490254 14.602683401276629 4
endloop
endfacet
facet normal 0.98361990694714385 0.18025503781390415 0
outer loop
vertex  74.963544370490254 14.602683401276629 4
vertex  74.854709087130246 15.1965783214378 0
vertex  74.854709087130246 15.1965783214378 4
endloop
endfacet
facet normal 0.9547208665085537 0.29750305385517667 0
outer loop
vertex  74.854709087130246 15.1965783214378 0
vertex  74.675081213427077 15.773024435212688 0
vertex  74.854709087130246 15.1965783214378 4
endloop
endfacet
facet normal 0.9547208665085537 0.29750305385517667 0
outer loop
vertex  74.854709087130246 15.1965783214378 4
vertex  74.675081213427077 15.773024435212688 0
vertex  74.675081213427077 15.773024435212688 4
endloop
endfacet
facet normal 0.91189984599207885 0.41041280545278186 0
outer loop
vertex  74.675081213427077 15.773024435212688 0
vertex  74.427280128266034 16.323615860218855 0
vertex  74.675081213427077 15.773024435212688 4
endloop
endfacet
facet normal 0.91189984599207885 0.41041280545278186 0
outer loop
vertex  74.675081213427077 15.773024435212688 4
vertex  74.427280128266034 16.323615860218855 0
vertex  74.427280128266034 16.323615860218855 4
endloop
endfacet
facet normal 0.8557812723014564 0.51733781417764224 0
outer loop
vertex  74.427280128266034 16.323615860218855 0
vertex  74.114919329468279 16.84032373365579 0
vertex  74.427280128266034 16.323615860218855 4
endloop
endfacet
facet normal 0.8557812723014564 0.51733781417764224 0
outer loop
vertex  74.427280128266034 16.323615860218855 4
vertex  74.114919329468279 16.84032373365579 0
vertex  74.114919329468279 16.84032373365579 4
endloop
endfacet
facet normal 0.78718348060904553 0.616718872628549 0
outer loop
vertex  74.114919329468279 16.84032373365579 0
vertex  73.7425537408555 17.315613291203984 0
vertex  74.114919329468279 16.84032373365579 4
endloop
endfacet
facet normal 0.78718348060904553 0.616718872628549 0
outer loop
vertex  74.114919329468279 16.84032373365579 4
vertex  73.7425537408555 17.315613291203984 0
vertex  73.7425537408555 17.315613291203984 4
endloop
endfacet
facet normal 0.70710678118654158 0.70710678118655335 0
outer loop
vertex  73.7425537408555 17.315613291203984 0
vertex  73.31561329120396 17.742553740855517 0
vertex  73.7425537408555 17.315613291203984 4
endloop
endfacet
facet normal 0.70710678118654158 0.70710678118655335 0
outer loop
vertex  73.7425537408555 17.315613291203984 4
vertex  73.31561329120396 17.742553740855517 0
vertex  73.31561329120396 17.742553740855517 4
endloop
endfacet
facet normal 0.61671887262855674 0.78718348060903953 0
outer loop
vertex  73.31561329120396 17.742553740855517 0
vertex  72.840323733655779 18.114919329468293 0
vertex  73.31561329120396 17.742553740855517 4
endloop
endfacet
facet normal 0.61671887262855674 0.78718348060903953 0
outer loop
vertex  73.31561329120396 17.742553740855517 4
vertex  72.840323733655779 18.114919329468293 0
vertex  72.840323733655779 18.114919329468293 4
endloop
endfacet
facet normal 0.51733781417765423 0.85578127230144907 0
outer loop
vertex  72.840323733655779 18.114919329468293 0
vertex  72.323615860218837 18.427280128266062 0
vertex  72.840323733655779 18.114919329468293 4
endloop
endfacet
facet normal 0.51733781417765423 0.85578127230144907 0
outer loop
vertex  72.840323733655779 18.114919329468293 4
vertex  72.323615860218837 18.427280128266062 0
vertex  72.323615860218837 18.427280128266062 4
endloop
endfacet
facet normal 0.41041280545275577 0.91189984599209051 0
outer loop
vertex  72.323615860218837 18.427280128266062 0
vertex  71.773024435212676 18.675081213427084 0
vertex  72.323615860218837 18.427280128266062 4
endloop
endfacet
facet normal 0.41041280545275577 0.91189984599209051 0
outer loop
vertex  72.323615860218837 18.427280128266062 4
vertex  71.773024435212676 18.675081213427084 0
vertex  71.773024435212676 18.675081213427084 4
endloop
endfacet
facet normal 0.29750305385520048 0.95472086650854626 0
outer loop
vertex  71.773024435212676 18.675081213427084 0
vertex  71.196578321437769 18.854709087130274 0
vertex  71.773024435212676 18.675081213427084 4
endloop
endfacet
facet normal 0.29750305385520048 0.95472086650854626 0
outer loop
vertex  71.773024435212676 18.675081213427084 4
vertex  71.196578321437769 18.854709087130274 0
vertex  71.196578321437769 18.854709087130274 4
endloop
endfacet
facet normal 0.18025503781390109 0.98361990694714463 0
outer loop
vertex  71.196578321437769 18.854709087130274 0
vertex  70.602683401276607 18.963544370490279 0
vertex  71.196578321437769 18.854709087130274 4
endloop
endfacet
facet normal 0.18025503781390109 0.98361990694714463 0
outer loop
vertex  71.196578321437769 18.854709087130274 4
vertex  70.602683401276607 18.963544370490279 0
vertex  70.602683401276607 18.963544370490279 4
endloop
endfacet
facet normal 0.060378497422287972 0.99817555422331727 0
outer loop
vertex  70.602683401276607 18.963544370490279 0
vertex  69.999999999999986 19.000000000000011 0
vertex  70.602683401276607 18.963544370490279 4
endloop
endfacet
facet normal 0.060378497422287972 0.99817555422331727 0
outer loop
vertex  70.602683401276607 18.963544370490279 4
vertex  69.999999999999986 19.000000000000011 0
vertex  69.999999999999986 19.000000000000011 4
endloop
endfacet
facet normal -0.060378497422287972 0.99817555422331727 0
outer loop
vertex  -69.999999999999986 18.999999999999993 4
vertex  -69.999999999999986 18.999999999999993 0
vertex  -70.602683401276607 18.963544370490261 0
endloop
endfacet
facet normal -0.060378497422287972 0.99817555422331727 0
outer loop
vertex  -69.999999999999986 18.999999999999993 4
vertex  -70.602683401276607 18.963544370490261 0
vertex  -70.602683401276607 18.963544370490261 4
endloop
endfacet
facet normal -0.18025503781390109 0.98361990694714463 0
outer loop
vertex  -70.602683401276607 18.963544370490261 0
vertex  -71.196578321437769 18.854709087130257 0
vertex  -70.602683401276607 18.963544370490261 4
endloop
endfacet
facet normal -0.18025503781390109 0.98361990694714463 0
outer loop
vertex  -70.602683401276607 18.963544370490261 4
vertex  -71.196578321437769 18.854709087130257 0
vertex  -71.196578321437769 18.854709087130257 4
endloop
endfacet
facet normal -0.29750305385520587 0.95472086650854471 0
outer loop
vertex  -71.196578321437769 18.854709087130257 0
vertex  -71.773024435212676 18.675081213427063 0
vertex  -71.196578321437769 18.854709087130257 4
endloop
endfacet
facet normal -0.29750305385520587 0.95472086650854471 0
outer loop
vertex  -71.196578321437769 18.854709087130257 4
vertex  -71.773024435212676 18.675081213427063 0
vertex  -71.773024435212676 18.675081213427063 4
endloop
endfacet
facet normal -0.41041280545275577 0.91189984599209051 0
outer loop
vertex  -71.773024435212676 18.675081213427063 0
vertex  -72.323615860218837 18.427280128266041 0
vertex  -71.773024435212676 18.675081213427063 4
endloop
endfacet
facet normal -0.41041280545275577 0.91189984599209051 0
outer loop
vertex  -71.773024435212676 18.675081213427063 4
vertex  -72.323615860218837 18.427280128266041 0
vertex  -72.323615860218837 18.427280128266041 4
endloop
endfacet
facet normal -0.51733781417765 0.85578127230145173 0
outer loop
vertex  -72.323615860218837 18.427280128266041 0
vertex  -72.840323733655779 18.114919329468275 0
vertex  -72.323615860218837 18.427280128266041 4
endloop
endfacet
facet normal -0.51733781417765 0.85578127230145173 0
outer loop
vertex  -72.323615860218837 18.427280128266041 4
vertex  -72.840323733655779 18.114919329468275 0
vertex  -72.840323733655779 18.114919329468275 4
endloop
endfacet
facet normal -0.61671887262855674 0.78718348060903953 0
outer loop
vertex  -72.840323733655779 18.114919329468275 0
vertex  -73.31561329120396 17.7425537408555 0
vertex  -72.840323733655779 18.114919329468275 4
endloop
endfacet
facet normal -0.61671887262855674 0.78718348060903953 0
outer loop
vertex  -72.840323733655779 18.114919329468275 4
vertex  -73.31561329120396 17.7425537408555 0
vertex  -73.31561329120396 17.7425537408555 4
endloop
endfacet
facet normal -0.70710678118654458 0.70710678118655046 0
outer loop
vertex  -73.31561329120396 17.7425537408555 0
vertex  -73.7425537408555 17.315613291203963 0
vertex  -73.31561329120396 17.7425537408555 4
endloop
endfacet
facet normal -0.70710678118654458 0.70710678118655046 0
outer loop
vertex  -73.31561329120396 17.7425537408555 4
vertex  -73.7425537408555 17.315613291203963 0
vertex  -73.7425537408555 17.315613291203963 4
endloop
endfacet
facet normal -0.78718348060904353 0.61671887262855185 0
outer loop
vertex  -73.7425537408555 17.315613291203963 0
vertex  -74.114919329468279 16.840323733655772 0
vertex  -73.7425537408555 17.315613291203963 4
endloop
endfacet
facet normal -0.78718348060904353 0.61671887262855185 0
outer loop
vertex  -73.7425537408555 17.315613291203963 4
vertex  -74.114919329468279 16.840323733655772 0
vertex  -74.114919329468279 16.840323733655772 4
endloop
endfacet
facet normal -0.85578127230144763 0.5173378141776569 0
outer loop
vertex  -74.114919329468279 16.840323733655772 0
vertex  -74.427280128266048 16.323615860218833 0
vertex  -74.114919329468279 16.840323733655772 4
endloop
endfacet
facet normal -0.85578127230144763 0.5173378141776569 0
outer loop
vertex  -74.114919329468279 16.840323733655772 4
vertex  -74.427280128266048 16.323615860218833 0
vertex  -74.427280128266048 16.323615860218833 4
endloop
endfacet
facet normal -0.91189984599208651 0.41041280545276443 0
outer loop
vertex  -74.427280128266048 16.323615860218833 0
vertex  -74.675081213427077 15.773024435212671 0
vertex  -74.427280128266048 16.323615860218833 4
endloop
endfacet
facet normal -0.91189984599208651 0.41041280545276443 0
outer loop
vertex  -74.427280128266048 16.323615860218833 4
vertex  -74.675081213427077 15.773024435212671 0
vertex  -74.675081213427077 15.773024435212671 4
endloop
endfacet
facet normal -0.9547208665085537 0.29750305385517667 0
outer loop
vertex  -74.675081213427077 15.773024435212671 0
vertex  -74.854709087130246 15.196578321437782 0
vertex  -74.675081213427077 15.773024435212671 4
endloop
endfacet
facet normal -0.9547208665085537 0.29750305385517667 0
outer loop
vertex  -74.675081213427077 15.773024435212671 4
vertex  -74.854709087130246 15.196578321437782 0
vertex  -74.854709087130246 15.196578321437782 4
endloop
endfacet
facet normal -0.98361990694714385 0.18025503781390362 0
outer loop
vertex  -74.854709087130246 15.196578321437782 0
vertex  -74.963544370490254 14.602683401276609 0
vertex  -74.854709087130246 15.196578321437782 4
endloop
endfacet
facet normal -0.98361990694714385 0.18025503781390362 0
outer loop
vertex  -74.854709087130246 15.196578321437782 4
vertex  -74.963544370490254 14.602683401276609 0
vertex  -74.963544370490254 14.602683401276609 4
endloop
endfacet
facet normal -0.99817555422331583 0.060378497422311952 0
outer loop
vertex  -74.963544370490254 14.602683401276609 0
vertex  -75 13.999999999999993 0
vertex  -74.963544370490254 14.602683401276609 4
endloop
endfacet
facet normal -0.99817555422331583 0.060378497422311952 0
outer loop
vertex  -74.963544370490254 14.602683401276609 4
vertex  -75 13.999999999999993 0
vertex  -75 13.999999999999993 4
endloop
endfacet
facet normal -0.99817555422331583 -0.060378497422311952 0
outer loop
vertex  -75 -14.000000000000004 4
vertex  -75 -14.000000000000004 0
vertex  -74.963544370490254 -14.60268340127662 0
endloop
endfacet
facet normal -0.99817555422331583 -0.060378497422311952 0
outer loop
vertex  -75 -14.000000000000004 4
vertex  -74.963544370490254 -14.60268340127662 0
vertex  -74.963544370490254 -14.60268340127662 4
endloop
endfacet
facet normal -0.98361990694714385 -0.18025503781390362 0
outer loop
vertex  -74.963544370490254 -14.60268340127662 0
vertex  -74.854709087130246 -15.196578321437793 0
vertex  -74.963544370490254 -14.60268340127662 4
endloop
endfacet
facet normal -0.98361990694714385 -0.18025503781390362 0
outer loop
vertex  -74.963544370490254 -14.60268340127662 4
vertex  -74.854709087130246 -15.196578321437793 0
vertex  -74.854709087130246 -15.196578321437793 4
endloop
endfacet
facet normal -0.95472086650854771 -0.29750305385519649 0
outer loop
vertex  -74.854709087130246 -15.196578321437793 0
vertex  -74.675081213427063 -15.773024435212685 0
vertex  -74.854709087130246 -15.196578321437793 4
endloop
endfacet
facet normal -0.95472086650854771 -0.29750305385519649 0
outer loop
vertex  -74.854709087130246 -15.196578321437793 4
vertex  -74.675081213427063 -15.773024435212685 0
vertex  -74.675081213427063 -15.773024435212685 4
endloop
endfacet
facet normal -0.91189984599208762 -0.41041280545276226 0
outer loop
vertex  -74.675081213427063 -15.773024435212685 0
vertex  -74.427280128266034 -16.323615860218851 0
vertex  -74.675081213427063 -15.773024435212685 4
endloop
endfacet
facet normal -0.91189984599208762 -0.41041280545276226 0
outer loop
vertex  -74.675081213427063 -15.773024435212685 4
vertex  -74.427280128266034 -16.323615860218851 0
vertex  -74.427280128266034 -16.323615860218851 4
endloop
endfacet
facet normal -0.8557812723014564 -0.51733781417764224 0
outer loop
vertex  -74.427280128266034 -16.323615860218851 0
vertex  -74.114919329468279 -16.840323733655786 0
vertex  -74.427280128266034 -16.323615860218851 4
endloop
endfacet
facet normal -0.8557812723014564 -0.51733781417764224 0
outer loop
vertex  -74.427280128266034 -16.323615860218851 4
vertex  -74.114919329468279 -16.840323733655786 0
vertex  -74.114919329468279 -16.840323733655786 4
endloop
endfacet
facet normal -0.78718348060904353 -0.61671887262855185 0
outer loop
vertex  -74.114919329468279 -16.840323733655786 0
vertex  -73.7425537408555 -17.315613291203977 0
vertex  -74.114919329468279 -16.840323733655786 4
endloop
endfacet
facet normal -0.78718348060904353 -0.61671887262855185 0
outer loop
vertex  -74.114919329468279 -16.840323733655786 4
vertex  -73.7425537408555 -17.315613291203977 0
vertex  -73.7425537408555 -17.315613291203977 4
endloop
endfacet
facet normal -0.70710678118654158 -0.70710678118655335 0
outer loop
vertex  -73.7425537408555 -17.315613291203977 0
vertex  -73.31561329120396 -17.742553740855509 0
vertex  -73.7425537408555 -17.315613291203977 4
endloop
endfacet
facet normal -0.70710678118654158 -0.70710678118655335 0
outer loop
vertex  -73.7425537408555 -17.315613291203977 4
vertex  -73.31561329120396 -17.742553740855509 0
vertex  -73.31561329120396 -17.742553740855509 4
endloop
endfacet
facet normal -0.61671887262855674 -0.78718348060903953 0
outer loop
vertex  -73.31561329120396 -17.742553740855509 0
vertex  -72.840323733655779 -18.114919329468286 0
vertex  -73.31561329120396 -17.742553740855509 4
endloop
endfacet
facet normal -0.61671887262855674 -0.78718348060903953 0
outer loop
vertex  -73.31561329120396 -17.742553740855509 4
vertex  -72.840323733655779 -18.114919329468286 0
vertex  -72.840323733655779 -18.114919329468286 4
endloop
endfacet
facet normal -0.51733781417765423 -0.85578127230144907 0
outer loop
vertex  -72.840323733655779 -18.114919329468286 0
vertex  -72.323615860218837 -18.427280128266055 0
vertex  -72.840323733655779 -18.114919329468286 4
endloop
endfacet
facet normal -0.51733781417765423 -0.85578127230144907 0
outer loop
vertex  -72.840323733655779 -18.114919329468286 4
vertex  -72.323615860218837 -18.427280128266055 0
vertex  -72.323615860218837 -18.427280128266055 4
endloop
endfacet
facet normal -0.41041280545275083 -0.91189984599209262 0
outer loop
vertex  -72.323615860218837 -18.427280128266055 0
vertex  -71.773024435212676 -18.675081213427074 0
vertex  -72.323615860218837 -18.427280128266055 4
endloop
endfacet
facet normal -0.41041280545275083 -0.91189984599209262 0
outer loop
vertex  -72.323615860218837 -18.427280128266055 4
vertex  -71.773024435212676 -18.675081213427074 0
vertex  -71.773024435212676 -18.675081213427074 4
endloop
endfacet
facet normal -0.29750305385520587 -0.95472086650854471 0
outer loop
vertex  -71.773024435212676 -18.675081213427074 0
vertex  -71.196578321437769 -18.854709087130267 0
vertex  -71.773024435212676 -18.675081213427074 4
endloop
endfacet
facet normal -0.29750305385520587 -0.95472086650854471 0
outer loop
vertex  -71.773024435212676 -18.675081213427074 4
vertex  -71.196578321437769 -18.854709087130267 0
vertex  -71.196578321437769 -18.854709087130267 4
endloop
endfacet
facet normal -0.18025503781390109 -0.98361990694714463 0
outer loop
vertex  -71.196578321437769 -18.854709087130267 0
vertex  -70.602683401276607 -18.963544370490272 0
vertex  -71.196578321437769 -18.854709087130267 4
endloop
endfacet
facet normal -0.18025503781390109 -0.98361990694714463 0
outer loop
vertex  -71.196578321437769 -18.854709087130267 4
vertex  -70.602683401276607 -18.963544370490272 0
vertex  -70.602683401276607 -18.963544370490272 4
endloop
endfacet
facet normal -0.060378497422287972 -0.99817555422331727 0
outer loop
vertex  -70.602683401276607 -18.963544370490272 0
vertex  -69.999999999999986 -19.000000000000004 0
vertex  -70.602683401276607 -18.963544370490272 4
endloop
endfacet
facet normal -0.060378497422287972 -0.99817555422331727 0
outer loop
vertex  -70.602683401276607 -18.963544370490272 4
vertex  -69.999999999999986 -19.000000000000004 0
vertex  -69.999999999999986 -19.000000000000004 4
endloop
endfacet
facet normal 0.060378497422287972 -0.99817555422331727 0
outer loop
vertex  69.999999999999986 -19.000000000000004 4
vertex  69.999999999999986 -19.000000000000004 0
vertex  70.602683401276607 -18.963544370490272 0
endloop
endfacet
facet normal 0.060378497422287972 -0.99817555422331727 0
outer loop
vertex  69.999999999999986 -19.000000000000004 4
vertex  70.602683401276607 -18.963544370490272 0
vertex  70.602683401276607 -18.963544370490272 4
endloop
endfacet
facet normal 0.18025503781390675 -0.98361990694714341 0
outer loop
vertex  70.602683401276607 -18.963544370490272 0
vertex  71.196578321437769 -18.854709087130264 0
vertex  70.602683401276607 -18.963544370490272 4
endloop
endfacet
facet normal 0.18025503781390675 -0.98361990694714341 0
outer loop
vertex  70.602683401276607 -18.963544370490272 4
vertex  71.196578321437769 -18.854709087130264 0
vertex  71.196578321437769 -18.854709087130264 4
endloop
endfacet
facet normal 0.29750305385520048 -0.95472086650854626 0
outer loop
vertex  71.196578321437769 -18.854709087130264 0
vertex  71.773024435212676 -18.675081213427074 0
vertex  71.196578321437769 -18.854709087130264 4
endloop
endfacet
facet normal 0.29750305385520048 -0.95472086650854626 0
outer loop
vertex  71.196578321437769 -18.854709087130264 4
vertex  71.773024435212676 -18.675081213427074 0
vertex  71.773024435212676 -18.675081213427074 4
endloop
endfacet
facet normal 0.41041280545275577 -0.91189984599209051 0
outer loop
vertex  71.773024435212676 -18.675081213427074 0
vertex  72.323615860218837 -18.427280128266052 0
vertex  71.773024435212676 -18.675081213427074 4
endloop
endfacet
facet normal 0.41041280545275577 -0.91189984599209051 0
outer loop
vertex  71.773024435212676 -18.675081213427074 4
vertex  72.323615860218837 -18.427280128266052 0
vertex  72.323615860218837 -18.427280128266052 4
endloop
endfacet
facet normal 0.51733781417765867 -0.85578127230144663 0
outer loop
vertex  72.323615860218837 -18.427280128266052 0
vertex  72.840323733655779 -18.114919329468279 0
vertex  72.323615860218837 -18.427280128266052 4
endloop
endfacet
facet normal 0.51733781417765867 -0.85578127230144663 0
outer loop
vertex  72.323615860218837 -18.427280128266052 4
vertex  72.840323733655779 -18.114919329468279 0
vertex  72.840323733655779 -18.114919329468279 4
endloop
endfacet
facet normal 0.61671887262855307 -0.78718348060904242 0
outer loop
vertex  72.840323733655779 -18.114919329468279 0
vertex  73.31561329120396 -17.742553740855506 0
vertex  72.840323733655779 -18.114919329468279 4
endloop
endfacet
facet normal 0.61671887262855307 -0.78718348060904242 0
outer loop
vertex  72.840323733655779 -18.114919329468279 4
vertex  73.31561329120396 -17.742553740855506 0
vertex  73.31561329120396 -17.742553740855506 4
endloop
endfacet
facet normal 0.70710678118654158 -0.70710678118655335 0
outer loop
vertex  73.31561329120396 -17.742553740855506 0
vertex  73.7425537408555 -17.315613291203974 0
vertex  73.31561329120396 -17.742553740855506 4
endloop
endfacet
facet normal 0.70710678118654158 -0.70710678118655335 0
outer loop
vertex  73.31561329120396 -17.742553740855506 4
vertex  73.7425537408555 -17.315613291203974 0
vertex  73.7425537408555 -17.315613291203974 4
endloop
endfacet
facet normal 0.78718348060904553 -0.616718872628549 0
outer loop
vertex  73.7425537408555 -17.315613291203974 0
vertex  74.114919329468279 -16.840323733655779 0
vertex  73.7425537408555 -17.315613291203974 4
endloop
endfacet
facet normal 0.78718348060904553 -0.616718872628549 0
outer loop
vertex  73.7425537408555 -17.315613291203974 4
vertex  74.114919329468279 -16.840323733655779 0
vertex  74.114919329468279 -16.840323733655779 4
endloop
endfacet
facet normal 0.85578127230144763 -0.5173378141776569 0
outer loop
vertex  74.114919329468279 -16.840323733655779 0
vertex  74.427280128266048 -16.32361586021884 0
vertex  74.114919329468279 -16.840323733655779 4
endloop
endfacet
facet normal 0.85578127230144763 -0.5173378141776569 0
outer loop
vertex  74.114919329468279 -16.840323733655779 4
vertex  74.427280128266048 -16.32361586021884 0
vertex  74.427280128266048 -16.32361586021884 4
endloop
endfacet
facet normal 0.91189984599208762 -0.41041280545276226 0
outer loop
vertex  74.427280128266048 -16.32361586021884 0
vertex  74.675081213427077 -15.773024435212674 0
vertex  74.427280128266048 -16.32361586021884 4
endloop
endfacet
facet normal 0.91189984599208762 -0.41041280545276226 0
outer loop
vertex  74.427280128266048 -16.32361586021884 4
vertex  74.675081213427077 -15.773024435212674 0
vertex  74.675081213427077 -15.773024435212674 4
endloop
endfacet
facet normal 0.95472086650855337 -0.29750305385517833 0
outer loop
vertex  74.675081213427077 -15.773024435212674 0
vertex  74.854709087130246 -15.196578321437789 0
vertex  74.675081213427077 -15.773024435212674 4
endloop
endfacet
facet normal 0.95472086650855337 -0.29750305385517833 0
outer loop
vertex  74.675081213427077 -15.773024435212674 4
vertex  74.854709087130246 -15.196578321437789 0
vertex  74.854709087130246 -15.196578321437789 4
endloop
endfacet
facet normal 0.98361990694714385 -0.18025503781390362 0
outer loop
vertex  74.854709087130246 -15.196578321437789 0
vertex  74.963544370490254 -14.602683401276616 0
vertex  74.854709087130246 -15.196578321437789 4
endloop
endfacet
facet normal 0.98361990694714385 -0.18025503781390362 0
outer loop
vertex  74.854709087130246 -15.196578321437789 4
vertex  74.963544370490254 -14.602683401276616 0
vertex  74.963544370490254 -14.602683401276616 4
endloop
endfacet
facet normal 0.99817555422331583 -0.060378497422312126 0
outer loop
vertex  74.963544370490254 -14.602683401276616 0
vertex  75 -14.000000000000002 0
vertex  74.963544370490254 -14.602683401276616 4
endloop
endfacet
facet normal 0.99817555422331583 -0.060378497422312126 0
outer loop
vertex  74.963544370490254 -14.602683401276616 4
vertex  75 -14.000000000000002 0
vertex  75 -14.000000000000002 4
endloop
endfacet
endsolid
